<?xml version="1.0" encoding="UTF-8"?>
<svg version="1.1" xmlns="http://www.w3.org/2000/svg" width="811" height="331">
<path d="M0 0 C239.91 0 479.82 0 727 0 C718.8643439 72.05866828 718.8643439 72.05866828 714.88073397 105.74644065 C714.52905285 108.72139272 714.17785233 111.69640118 713.82679367 114.67142677 C712.59526917 125.10788145 711.3621974 135.54415177 710.12744141 145.98022461 C708.98430662 155.64228835 707.84484593 165.30478106 706.70691073 174.96745843 C705.716243 183.37829535 704.72314706 191.7888432 703.72812116 200.19916564 C703.13930231 205.1764097 702.5514516 210.15376323 701.96608353 215.13141441 C701.42215205 219.75601022 700.87521126 224.38023998 700.32588577 229.00419807 C700.12522863 230.6976566 699.92566365 232.39124493 699.72725677 234.08496857 C699.4572197 236.38872532 699.1832958 238.691987 698.90835571 240.99516296 C698.75613367 242.28349879 698.60391163 243.57183462 698.4470768 244.89921093 C698 248 698 248 697 251 C457.42 251 217.84 251 -29 251 C-29 240.87498444 -29 240.87498444 -28.56550694 237.22362995 C-28.46858856 236.38732935 -28.37167018 235.55102875 -28.27181488 234.68938571 C-28.10941823 233.35745245 -28.10941823 233.35745245 -27.94374084 231.99861145 C-27.77328999 230.54784927 -27.77328999 230.54784927 -27.59939569 229.06777877 C-27.21977521 225.84771421 -26.83267176 222.6285953 -26.44555664 219.40942383 C-26.1708725 217.09279092 -25.8966483 214.77610344 -25.62284851 212.45936584 C-24.87964233 206.18226244 -24.12990874 199.90595421 -23.37891698 193.62977815 C-22.67331894 187.72509729 -21.97242063 181.81986009 -21.27142125 175.91463181 C-19.88252969 164.21610051 -18.48873791 152.5181584 -17.09204102 140.82055664 C-15.73760735 129.47685998 -14.38618392 118.13281048 -13.03833008 106.78833008 C-12.91372437 105.73956904 -12.91372437 105.73956904 -12.78660137 104.66962091 C-12.45266976 101.85899194 -12.11874119 99.04836261 -11.78482098 96.23773228 C-10.42116867 84.7605959 -9.05492374 73.28376799 -7.68842387 61.80697036 C-7.22249539 57.89318005 -6.75684937 53.97935619 -6.2912159 50.06553078 C-5.55969704 43.91843065 -4.82662641 37.77151742 -4.0923481 31.62474632 C-3.82298575 29.36812403 -3.55409786 27.11144504 -3.28571701 24.85470581 C-2.91954216 21.77645752 -2.55162406 18.69842253 -2.1832428 15.62043762 C-2.07720909 14.72578995 -1.97117538 13.83114228 -1.86192852 12.90938407 C-1.7624024 12.08090671 -1.66287627 11.25242936 -1.56033421 10.39884663 C-1.47565657 9.68909162 -1.39097894 8.97933661 -1.30373532 8.24807388 C-0.93104636 5.48964488 -0.45760326 2.74561958 0 0 Z M6 7 C-3.24 85.21 -12.48 163.42 -22 244 C194.48 244 410.96 244 634 244 C643.47793386 165.01721782 652.77227384 86.01240524 662 7 C445.52 7 229.04 7 6 7 Z " fill="#040206" transform="translate(46,27)"/>
<path d="M0 0 C4.95 0 9.9 0 15 0 C16.9974528 4.09172092 18.99248395 8.18444338 20.98144531 12.28027344 C21.65907394 13.67386252 22.33810524 15.06677045 23.01855469 16.45898438 C23.99521741 18.45786843 24.96684344 20.45913137 25.9375 22.4609375 C26.24373291 23.08495453 26.54996582 23.70897156 26.86547852 24.35189819 C29 28.77225659 29 28.77225659 29 31 C29.66 31 30.32 31 31 31 C31.27239502 30.4227417 31.54479004 29.8454834 31.82543945 29.25073242 C32.99843929 27.00299068 34.30648956 25.04029276 35.79296875 22.98828125 C36.33687256 22.23401855 36.88077637 21.47975586 37.44116211 20.70263672 C38.6189519 19.09064706 39.8008538 17.48165489 40.98657227 15.87548828 C43.42375605 12.57306578 45.79914231 9.33272157 47.921875 5.81640625 C49.48227915 3.30286864 50.54447937 1.65747643 53 0 C57.76158545 -0.71107747 62.22761956 -0.53614815 67 0 C67.27768692 9.07054518 66.19983047 17.86479094 65.06640625 26.83984375 C64.8665775 28.45498788 64.66719861 30.07018772 64.46824646 31.68544006 C64.05250402 35.05029614 63.63271327 38.41461274 63.2097168 41.77856445 C62.66761538 46.09082781 62.13369097 50.40405458 61.60249424 54.7176733 C61.19234441 58.04391828 60.77897625 61.36975668 60.3645153 64.695467 C60.16641275 66.28660335 59.96906714 67.87783413 59.77249336 69.46916008 C59.4980114 71.68549164 59.21945579 73.90127249 58.93969727 76.11694336 C58.78203384 77.37695663 58.62437042 78.63696991 58.46192932 79.93516541 C58 83 58 83 57 86 C52.38 86 47.76 86 43 86 C42.89572396 79.30100902 43.21550106 72.90166106 44.09375 66.265625 C44.20473022 65.38396667 44.31571045 64.50230835 44.43005371 63.59393311 C44.78087456 60.81184363 45.13975684 58.0308838 45.5 55.25 C45.85935631 52.45473849 46.21684741 49.65927933 46.56994629 46.86322021 C46.78867555 45.13311543 47.01105423 43.40346678 47.2376709 41.67437744 C47.77853875 37.41610414 48.1213369 33.30399326 48 29 C47.26394531 30.08539063 46.52789062 31.17078125 45.76953125 32.2890625 C44.78401577 33.7344852 43.7983296 35.17979152 42.8125 36.625 C42.32974609 37.33785156 41.84699219 38.05070312 41.34960938 38.78515625 C39.92212418 40.87369164 38.4710709 42.94196249 37 45 C36.56776123 45.61020996 36.13552246 46.22041992 35.69018555 46.84912109 C33.80682408 49.33114999 32.63433675 50.84872733 29.54296875 51.5859375 C27.24475098 51.38012695 27.24475098 51.38012695 24.9465332 51.17431641 C24.30417725 51.11679199 23.66182129 51.05926758 23 51 C21.72660518 48.48043257 20.45623358 45.95941351 19.1875 43.4375 C18.83107422 42.73302734 18.47464844 42.02855469 18.10742188 41.30273438 C17.75615234 40.60341797 17.40488281 39.90410156 17.04296875 39.18359375 C16.72352295 38.54993896 16.40407715 37.91628418 16.07495117 37.26342773 C14.62586609 34.21221997 13.3179063 31.11012756 12 28 C11.87178612 29.04569656 11.87178612 29.04569656 11.74098206 30.11251831 C10.9355926 36.67575552 10.12666898 43.23854626 9.31375217 49.80085564 C8.89592902 53.17477939 8.47948422 56.54886149 8.06616211 59.92333984 C7.5911516 63.80096339 7.11019497 67.67783798 6.62890625 71.5546875 C6.48095108 72.76929657 6.33299591 73.98390564 6.18055725 75.23532104 C6.04048752 76.35633209 5.90041779 77.47734314 5.75610352 78.63232422 C5.57290306 80.11791336 5.57290306 80.11791336 5.38600159 81.6335144 C5 84 5 84 4 86 C-0.62 86 -5.24 86 -10 86 C-10.30744554 77.24867149 -9.14146006 68.70238789 -8.06640625 60.0390625 C-7.86663812 58.4000607 -7.66725794 56.76101157 -7.46824646 55.12191772 C-7.05210433 51.70406571 -6.6323241 48.28668742 -6.2097168 44.86962891 C-5.66807729 40.48888948 -5.13404081 36.10726455 -4.60249424 31.7252903 C-4.19230557 28.3484405 -3.77893746 24.97198617 -3.3645153 21.59565353 C-3.1663655 19.97940172 -2.96901997 18.36305109 -2.77249336 16.7466011 C-2.49800871 14.49424468 -2.21944263 12.24243093 -1.93969727 9.99072266 C-1.78203384 8.70992828 -1.62437042 7.42913391 -1.46192932 6.10952759 C-1 3 -1 3 0 0 Z " fill="#000000" transform="translate(202,59)"/>
<path d="M0 0 C1.93166016 0.01740234 1.93166016 0.01740234 3.90234375 0.03515625 C5.19269531 0.04417969 6.48304687 0.05320313 7.8125 0.0625 C8.81152344 0.07410156 9.81054688 0.08570313 10.83984375 0.09765625 C16.17028743 10.4605685 21.1670446 20.97399932 26.08984375 31.53515625 C26.39343811 32.18591125 26.69703247 32.83666626 27.00982666 33.50714111 C30.35185185 40.67570961 33.6416188 47.86368254 36.83984375 55.09765625 C36.91057098 54.49710419 36.98129822 53.89655212 37.0541687 53.27780151 C37.79300043 47.01500941 38.54068076 40.75331847 39.29345703 34.4921875 C39.57306307 32.15684527 39.85042852 29.82123362 40.12548828 27.48535156 C40.5217445 24.12361105 40.92610652 20.7629288 41.33203125 17.40234375 C41.51341141 15.84107254 41.51341141 15.84107254 41.69845581 14.2482605 C41.87841599 12.77741501 41.87841599 12.77741501 42.06201172 11.27685547 C42.16415985 10.4196994 42.26630798 9.56254333 42.37155151 8.67941284 C42.83984375 6.09765625 42.83984375 6.09765625 44.83984375 0.09765625 C49.45984375 0.09765625 54.07984375 0.09765625 58.83984375 0.09765625 C58.20694758 9.92880241 57.2688158 19.66003875 56.0625 29.4375 C55.88921459 30.85801976 55.71607619 32.27855747 55.54307556 33.69911194 C55.18323366 36.64647138 54.82068277 39.59348201 54.45629883 42.5402832 C53.99169387 46.30052282 53.53552021 50.06173305 53.08150578 53.82326412 C52.72765943 56.74494091 52.36862188 59.66596261 52.00811577 62.58682442 C51.83772225 63.97357232 51.66908297 65.36053704 51.50230598 66.74772453 C49.90418032 80.00422917 49.90418032 80.00422917 47.83984375 86.09765625 C43.21984375 86.09765625 38.59984375 86.09765625 33.83984375 86.09765625 C31.42255766 80.99729092 29.00558235 75.89677846 26.58886719 70.79614258 C25.77058852 69.06921631 24.95223204 67.34232692 24.13378906 65.61547852 C18.68458117 54.11791763 13.25100784 42.61317321 7.83984375 31.09765625 C7.75436783 31.74245438 7.66889191 32.3872525 7.58082581 33.05158997 C6.69209593 39.75141898 5.79927362 46.45069348 4.90405273 53.1496582 C4.57031541 55.65114528 4.2376284 58.15277271 3.90600586 60.65454102 C3.42967144 64.2466294 2.94958511 67.83819916 2.46875 71.4296875 C2.32079483 72.55164017 2.17283966 73.67359283 2.020401 74.82954407 C1.88033127 75.87039658 1.74026154 76.91124908 1.59594727 77.98364258 C1.47381363 78.90075516 1.35167999 79.81786774 1.22584534 80.76277161 C0.83984375 83.09765625 0.83984375 83.09765625 -0.16015625 86.09765625 C-4.78015625 86.09765625 -9.40015625 86.09765625 -14.16015625 86.09765625 C-12.64121467 69.65105513 -10.66579353 53.26372548 -8.64624023 36.87280273 C-8.18222611 33.1052109 -7.72436218 29.33689721 -7.26787472 25.56838703 C-6.91309102 22.64708846 -6.55442187 19.72627692 -6.1946125 16.80559349 C-6.023779 15.41383926 -5.85433957 14.02191318 -5.68632317 12.62981606 C-5.45373092 10.70624536 -5.21518403 8.78339745 -4.97631836 6.8605957 C-4.77551918 5.22233574 -4.77551918 5.22233574 -4.57066345 3.55097961 C-3.95828531 -0.10878954 -3.83527402 0.11851897 0 0 Z " fill="#000000" transform="translate(58.16015625,163.90234375)"/>
<path d="M0 0 C0.91184555 -0.00807175 1.8236911 -0.01614349 2.76316833 -0.02445984 C4.70089811 -0.03832403 6.63865254 -0.04903568 8.57641602 -0.05688477 C11.52213036 -0.07400681 14.46669585 -0.11786019 17.41210938 -0.16210938 C19.29556467 -0.17224405 21.17902951 -0.18075772 23.0625 -0.1875 C24.37390709 -0.21376213 24.37390709 -0.21376213 25.71180725 -0.24055481 C32.38966333 -0.21721479 37.93767417 1.27726357 42.8359375 6.01953125 C43.37927734 6.8703125 43.37927734 6.8703125 43.93359375 7.73828125 C44.31386719 8.30546875 44.69414063 8.87265625 45.0859375 9.45703125 C48.33709659 15.81981471 47.90284297 24.2835437 46.34765625 31.06640625 C43.06183587 40.22176901 37.17074342 44.62542207 28.99609375 49.23828125 C29.32931641 50.18147217 29.66253906 51.12466309 30.00585938 52.09643555 C31.24370381 55.60672757 32.47126529 59.12054351 33.69580078 62.63549805 C34.22654266 64.15437834 34.76004373 65.67229749 35.29638672 67.18920898 C36.06820808 69.37364958 36.82993982 71.56138955 37.58984375 73.75 C37.83045532 74.42415451 38.07106689 75.09830902 38.31896973 75.79289246 C39.62857438 79.60040569 39.99609375 82.10080279 39.99609375 86.23828125 C35.04609375 86.23828125 30.09609375 86.23828125 24.99609375 86.23828125 C23.42390476 81.45291199 21.85748191 76.6657088 20.29638672 71.87670898 C19.76444265 70.24761 19.23092296 68.61902461 18.69580078 66.9909668 C17.92716897 64.6515596 17.16421124 62.31036751 16.40234375 59.96875 C16.16173218 59.24052536 15.92112061 58.51230072 15.67321777 57.76200867 C14.71541825 54.80252288 13.99609375 52.37027607 13.99609375 49.23828125 C9.04609375 49.23828125 4.09609375 49.23828125 -1.00390625 49.23828125 C-1.10703125 51.09453125 -1.21015625 52.95078125 -1.31640625 54.86328125 C-1.79625987 61.62991277 -2.59776009 68.32860603 -3.50390625 75.05078125 C-3.63450439 76.03578613 -3.76510254 77.02079102 -3.8996582 78.03564453 C-4.02687256 78.95458496 -4.15408691 79.87352539 -4.28515625 80.8203125 C-4.39923828 81.64764893 -4.51332031 82.47498535 -4.63085938 83.32739258 C-5.00390625 85.23828125 -5.00390625 85.23828125 -6.00390625 86.23828125 C-8.19030078 86.31087071 -10.37891014 86.32201908 -12.56640625 86.30078125 C-13.76394531 86.29175781 -14.96148438 86.28273438 -16.1953125 86.2734375 C-17.58556641 86.25603516 -17.58556641 86.25603516 -19.00390625 86.23828125 C-20.21732359 81.80569112 -19.80350873 77.82813229 -19.21533203 73.34277344 C-19.11954865 72.56336395 -19.02376526 71.78395447 -18.92507935 70.98092651 C-18.60761056 68.41462578 -18.27866295 65.84994494 -17.94921875 63.28515625 C-17.72540795 61.50115029 -17.50218 59.71707113 -17.2795105 57.93292236 C-16.81191721 54.20007697 -16.33893213 50.46796811 -15.86181641 46.73632812 C-15.24917059 41.94308357 -14.64743354 37.14854874 -14.04936409 32.35346603 C-13.58953811 28.67288143 -13.12528923 24.99286604 -12.65954208 21.31302643 C-12.43599255 19.54444122 -12.21353204 17.77571801 -11.9921608 16.00685883 C-11.68284351 13.54273709 -11.36789994 11.07940216 -11.05126953 8.61621094 C-10.95978638 7.87960236 -10.86830322 7.14299377 -10.77404785 6.38406372 C-9.78070854 -1.23813307 -6.98913528 0.05811108 0 0 Z M3.99609375 13.23828125 C2.72058509 19.13020196 1.72518255 24.84377166 1.37109375 30.86328125 C1.29632812 32.07242188 1.2215625 33.2815625 1.14453125 34.52734375 C1.09554687 35.42195313 1.0465625 36.3165625 0.99609375 37.23828125 C4.53747993 37.35509937 8.07836615 37.42573625 11.62109375 37.48828125 C12.62011719 37.52179688 13.61914062 37.5553125 14.6484375 37.58984375 C20.79598833 37.67126826 24.32519191 37.35565089 28.99609375 33.23828125 C32.17202856 29.53302397 32.50899206 26.11928059 32.359375 21.39453125 C31.81682752 18.17424945 30.33412105 16.43877754 27.99609375 14.23828125 C25.49112371 12.98579623 23.78756101 13.12453719 20.98828125 13.140625 C20.00214844 13.14384766 19.01601563 13.14707031 18 13.15039062 C16.45119141 13.16295898 16.45119141 13.16295898 14.87109375 13.17578125 C13.83082031 13.18029297 12.79054688 13.18480469 11.71875 13.18945312 C9.14447413 13.20126173 6.57031229 13.2177305 3.99609375 13.23828125 Z " fill="#000000" transform="translate(585.00390625,163.76171875)"/>
<path d="M0 0 C4.82414408 3.72308218 8.14778601 7.71259492 10.01953125 13.55859375 C10.25 16.63671875 10.25 16.63671875 10.20703125 19.80859375 C10.20058594 20.865625 10.19414062 21.92265625 10.1875 23.01171875 C10.01953125 25.55859375 10.01953125 25.55859375 9.01953125 26.55859375 C6.6663957 26.63131116 4.31119457 26.64230243 1.95703125 26.62109375 C0.66667969 26.61207031 -0.62367188 26.60304687 -1.953125 26.59375 C-2.95214844 26.58214844 -3.95117188 26.57054687 -4.98046875 26.55859375 C-5.03654297 25.67107422 -5.03654297 25.67107422 -5.09375 24.765625 C-5.48655263 20.04429144 -5.80698374 16.29877251 -8.98046875 12.55859375 C-13.22820583 9.93499143 -18.13845885 9.89416701 -22.98046875 10.55859375 C-28.34742626 12.40709575 -31.2680164 15.66838192 -33.98046875 20.55859375 C-34.81562389 23.6106342 -35.22341232 26.67111844 -35.60546875 29.80859375 C-35.77985474 31.11509888 -35.77985474 31.11509888 -35.95776367 32.44799805 C-36.19507736 34.25455463 -36.42476519 36.06212867 -36.64697266 37.87060547 C-36.96812261 40.45908351 -37.32074575 43.0415307 -37.6796875 45.625 C-37.88593921 47.20679441 -38.09044539 48.78881767 -38.29296875 50.37109375 C-38.39367676 51.09264648 -38.49438477 51.81419922 -38.59814453 52.55761719 C-39.16549081 57.36934528 -38.66841012 61.0254268 -36.98046875 65.55859375 C-34.08236736 69.00008915 -31.42704596 69.87215783 -27.10546875 70.49609375 C-22.1451097 70.7987347 -19.24249568 70.11580991 -14.98046875 67.55859375 C-11.44168503 63.84088276 -10.2401601 60.74406593 -9.23046875 55.74609375 C-8.81796875 53.70421875 -8.40546875 51.66234375 -7.98046875 49.55859375 C-13.26046875 49.55859375 -18.54046875 49.55859375 -23.98046875 49.55859375 C-23.98046875 43.98149309 -23.88051938 41.4274735 -21.98046875 36.55859375 C-17.86874315 36.53393629 -13.75704597 36.51575416 -9.64526367 36.50366211 C-8.24551647 36.49862295 -6.84577455 36.49179159 -5.44604492 36.4831543 C-3.43801098 36.47107055 -1.42993918 36.46589568 0.578125 36.4609375 C2.39268188 36.45308228 2.39268188 36.45308228 4.24389648 36.44506836 C7.01953125 36.55859375 7.01953125 36.55859375 8.01953125 37.55859375 C7.78559788 51.50462173 6.6306823 65.70301407 -3.23046875 76.43359375 C-11.02271038 83.6631571 -20.21776494 84.87550458 -30.43359375 84.76953125 C-37.58083692 84.34447494 -43.25422572 82.32420335 -48.47265625 77.32421875 C-54.50991331 70.25468458 -54.79260464 62.30590415 -54.21679688 53.36083984 C-53.70426838 47.28356498 -52.99192334 41.23357118 -52.23046875 35.18359375 C-52.07384766 33.90009033 -51.91722656 32.61658691 -51.75585938 31.29418945 C-50.19226594 19.76418559 -47.65269823 9.43386521 -38.0625 2.08984375 C-27.45558851 -4.96775306 -11.21589155 -6.74482065 0 0 Z " fill="#000000" transform="translate(344.98046875,166.44140625)"/>
<path d="M0 0 C5.79709286 4.01337198 9.68840874 8.94901179 11 16 C11.53798095 25.8585834 10.57865464 35.49331223 9.25 45.25 C9.01410156 47.17585938 9.01410156 47.17585938 8.7734375 49.140625 C7.17293299 61.1567204 4.40760201 70.86065833 -5 79 C-14.50554882 84.98021765 -23.96937408 86.08558052 -35 85 C-41.78746645 83.22013448 -47.6075835 79.57933572 -51.25 73.5 C-56.79992212 62.40015577 -53.92534276 47.6598043 -52.375 35.8125 C-52.23449219 34.54986328 -52.09398437 33.28722656 -51.94921875 31.98632812 C-50.58146014 21.39987647 -47.32836707 10.78635601 -39.078125 3.46875 C-28.2286836 -4.19927625 -11.99552325 -6.56358819 0 0 Z M-31.3984375 15.64257812 C-34.86553568 20.98124683 -36.03658986 25.72199077 -36.75 32 C-36.91822266 33.27617187 -36.91822266 33.27617187 -37.08984375 34.578125 C-37.41211603 37.05014292 -37.70645688 39.52443613 -38 42 C-38.18733947 43.4023652 -38.37482881 44.8047104 -38.5625 46.20703125 C-38.9682065 49.72436172 -39.19877409 53.14864346 -39.25 56.6875 C-39.27578125 57.76386719 -39.3015625 58.84023437 -39.328125 59.94921875 C-38.81596213 64.71111401 -36.91204457 67.19653217 -33.375 70.3125 C-29.03677053 72.48161474 -25.75843156 72.68590004 -21 72 C-15.6770841 70.2256947 -11.91646522 66.74364826 -9 62 C-6.7518767 55.76432953 -6.1390553 49.30684191 -5.375 42.75 C-5.2409375 41.68136719 -5.106875 40.61273438 -4.96875 39.51171875 C-3.10956789 27.23485631 -3.10956789 27.23485631 -5.6875 15.5 C-9.31461833 11.578791 -11.95804428 9.84770297 -17.3125 9.5625 C-22.87089968 9.79371463 -27.70216846 11.30101072 -31.3984375 15.64257812 Z " fill="#000000" transform="translate(547,166)"/>
<path d="M0 0 C6.27 0 12.54 0 19 0 C20.96261774 10.1781217 22.91973537 20.35725913 24.86727142 30.53827763 C25.77186951 35.2660104 26.67884166 39.99326151 27.59130859 44.71948242 C28.4722865 49.28307741 29.3469375 53.84784404 30.2172699 58.41348076 C30.54992518 60.15256114 30.8848333 61.8912122 31.22206116 63.6294117 C31.69508163 66.06962213 32.15996869 68.51125527 32.62304688 70.95336914 C32.76330795 71.66691055 32.90356903 72.38045197 33.04808044 73.11561584 C33.88795051 77.6029647 34 81.32201405 34 86 C29.05 86 24.1 86 19 86 C17.78460356 81.30046712 16.80161608 76.80969648 16 72 C5.77 71.67 -4.46 71.34 -15 71 C-15.99 73.97 -16.98 76.94 -18 80 C-18.99 81.98 -19.98 83.96 -21 86 C-25.95 86 -30.9 86 -36 86 C-34.87510753 79.25064518 -34.87510753 79.25064518 -33.47216797 76.1105957 C-33.15976166 75.40194366 -32.84735535 74.69329163 -32.52548218 73.96316528 C-32.18449493 73.20832855 -31.84350769 72.45349182 -31.4921875 71.67578125 C-31.13436188 70.86825409 -30.77653625 70.06072693 -30.40786743 69.22872925 C-29.23623515 66.5872785 -28.05550565 63.94999534 -26.875 61.3125 C-25.23379719 57.6185959 -23.59747175 53.92253685 -21.9609375 50.2265625 C-21.33919647 48.8250016 -21.33919647 48.8250016 -20.70489502 47.39512634 C-16.22222821 37.27669358 -11.87008176 27.10342959 -7.53509521 16.92105103 C-6.92275598 15.48276909 -6.31003122 14.0446512 -5.6968689 12.60671997 C-4.90272858 10.74382105 -4.11046839 8.88012096 -3.31835938 7.01635742 C-2.28223077 4.64573355 -1.15701513 2.31403026 0 0 Z M7 19 C3.28081061 26.07934813 0.21765616 33.4184102 -2.85595703 40.79321289 C-3.75855566 42.95802004 -4.66608508 45.12071288 -5.57421875 47.28320312 C-6.14872607 48.65612928 -6.72295525 50.02917187 -7.296875 51.40234375 C-7.70459137 52.37408791 -7.70459137 52.37408791 -8.12054443 53.36546326 C-9.44076038 56.09255485 -9.44076038 56.09255485 -10 59 C-2.08 59 5.84 59 14 59 C13.16225967 49.7195582 13.16225967 49.7195582 11.80859375 40.58203125 C11.58623047 39.30908203 11.36386719 38.03613281 11.13476562 36.72460938 C10.90466797 35.43361328 10.67457031 34.14261719 10.4375 32.8125 C10.20076043 31.46556704 9.96442974 30.11856215 9.72851562 28.77148438 C9.15634168 25.513596 8.58008867 22.25648673 8 19 C7.67 19 7.34 19 7 19 Z " fill="#000000" transform="translate(146,59)"/>
<path d="M0 0 C5.94 0 11.88 0 18 0 C19.67437096 4.1859274 20.70804814 7.97691741 21.51220703 12.35717773 C21.64904907 13.0797879 21.78589111 13.80239807 21.92687988 14.54690552 C22.37571242 16.92485996 22.81701935 19.30413699 23.2578125 21.68359375 C23.5685437 23.34364734 23.8795732 25.00364513 24.19088745 26.66358948 C24.84140354 30.1387957 25.48816977 33.61467362 26.13232422 37.09106445 C26.95677951 41.53873026 27.79071639 45.98455553 28.62750435 50.42991543 C29.27139052 53.85647207 29.91012284 57.28397408 30.54732895 60.71177864 C30.85271933 62.35107402 31.15972204 63.99006991 31.4683876 65.62875175 C31.89970069 67.92270527 32.32402199 70.21784798 32.74658203 72.51342773 C32.87435028 73.18530624 33.00211853 73.85718475 33.13375854 74.54942322 C33.85616539 78.52323066 34 81.88267503 34 86 C29.05 86 24.1 86 19 86 C17.78460356 81.30046712 16.80161608 76.80969648 16 72 C5.77 71.67 -4.46 71.34 -15 71 C-15.99 73.97 -16.98 76.94 -18 80 C-18.99 81.98 -19.98 83.96 -21 86 C-25.95 86 -30.9 86 -36 86 C-34.87510753 79.25064518 -34.87510753 79.25064518 -33.47216797 76.1105957 C-33.15976166 75.40194366 -32.84735535 74.69329163 -32.52548218 73.96316528 C-32.18449493 73.20832855 -31.84350769 72.45349182 -31.4921875 71.67578125 C-31.13436188 70.86825409 -30.77653625 70.06072693 -30.40786743 69.22872925 C-29.23623515 66.5872785 -28.05550565 63.94999534 -26.875 61.3125 C-25.23379719 57.6185959 -23.59747175 53.92253685 -21.9609375 50.2265625 C-21.33919647 48.8250016 -21.33919647 48.8250016 -20.70489502 47.39512634 C-16.22222821 37.27669358 -11.87008176 27.10342959 -7.53509521 16.92105103 C-6.92275598 15.48276909 -6.31003122 14.0446512 -5.6968689 12.60671997 C-4.90272858 10.74382105 -4.11046839 8.88012096 -3.31835938 7.01635742 C-2.28223077 4.64573355 -1.15701513 2.31403026 0 0 Z M7 19 C3.28081061 26.07934813 0.21765616 33.4184102 -2.85595703 40.79321289 C-3.75855566 42.95802004 -4.66608508 45.12071288 -5.57421875 47.28320312 C-6.14872607 48.65612928 -6.72295525 50.02917187 -7.296875 51.40234375 C-7.70459137 52.37408791 -7.70459137 52.37408791 -8.12054443 53.36546326 C-9.44076038 56.09255485 -9.44076038 56.09255485 -10 59 C-2.08 59 5.84 59 14 59 C13.16225967 49.7195582 13.16225967 49.7195582 11.80859375 40.58203125 C11.58623047 39.30908203 11.36386719 38.03613281 11.13476562 36.72460938 C10.90466797 35.43361328 10.67457031 34.14261719 10.4375 32.8125 C10.20076043 31.46556704 9.96442974 30.11856215 9.72851562 28.77148438 C9.15634168 25.513596 8.58008867 22.25648673 8 19 C7.67 19 7.34 19 7 19 Z " fill="#000000" transform="translate(154,164)"/>
<path d="M0 0 C6.27 0 12.54 0 19 0 C22.15395557 15.99565064 25.29484683 31.99381124 28.41436768 47.99621582 C28.77840092 49.86338956 29.14272663 51.73050633 29.50750732 53.59753418 C30.39186734 58.12531566 31.26405719 62.65519182 32.125 67.1875 C32.32440186 68.20884033 32.52380371 69.23018066 32.72924805 70.2824707 C33.72916187 75.62288804 34.19156517 80.56593458 34 86 C29.05 86 24.1 86 19 86 C17.88245064 80.76148736 17 76.37414597 17 71 C6.44 71 -4.12 71 -15 71 C-15.99 74.3 -16.98 77.6 -18 81 C-19.23828125 84.10546875 -19.23828125 84.10546875 -21 86 C-24.35546875 86.48828125 -24.35546875 86.48828125 -28.1875 86.3125 C-29.45980469 86.26738281 -30.73210937 86.22226563 -32.04296875 86.17578125 C-33.01878906 86.11777344 -33.99460937 86.05976563 -35 86 C-36.41506844 81.75479469 -34.58987422 79.10853618 -32.8359375 75.23046875 C-32.49223618 74.44996155 -32.14853485 73.66945435 -31.79441833 72.86529541 C-30.66341127 70.3020355 -29.51917121 67.74490734 -28.375 65.1875 C-27.59231562 63.41915559 -26.81066577 61.65035293 -26.0300293 59.88110352 C-24.44850911 56.29857363 -22.86276699 52.71796052 -21.27392578 49.13867188 C-18.34934754 42.54127814 -15.47750593 35.92138736 -12.61578369 29.29653931 C-11.84125776 27.50405407 -11.06495019 25.712339 -10.28857422 23.9206543 C-6.83806029 15.9560168 -3.4155287 7.97968706 0 0 Z M7 18 C4.71689002 23.51574476 2.43834527 29.03334406 0.1640625 34.55273438 C-0.61071717 36.43118508 -1.38675507 38.30911732 -2.1640625 40.18652344 C-3.27933467 42.88081616 -4.39010973 45.57692408 -5.5 48.2734375 C-5.84998047 49.11619232 -6.19996094 49.95894714 -6.56054688 50.82723999 C-6.88087891 51.60789825 -7.20121094 52.38855652 -7.53125 53.19287109 C-7.81548828 53.88126068 -8.09972656 54.56965027 -8.39257812 55.27890015 C-9.11093596 57.01014109 -9.11093596 57.01014109 -9 59 C-1.08 59 6.84 59 15 59 C12.69 45.47 10.38 31.94 8 18 C7.67 18 7.34 18 7 18 Z " fill="#000000" transform="translate(391,164)"/>
<path d="M0 0 C4.95 0 9.9 0 15 0 C17.55065052 13.12211591 19.66077441 26.28789471 21.6875 39.5 C22.01083214 41.59508845 22.33439832 43.6901408 22.65820312 45.78515625 C23.44149458 50.8563596 24.22163903 55.92803765 25 61 C27.16601098 57.75098353 28.52283938 54.43387036 29.94140625 50.82421875 C30.22530212 50.11021408 30.509198 49.39620941 30.80169678 48.66056824 C31.40985204 47.13015316 32.01648271 45.59913154 32.62173462 44.06756592 C33.87954097 40.88541009 35.14525892 37.70642475 36.41081238 34.52734375 C37.04300326 32.93926481 37.6748496 31.35104867 38.30635071 29.76269531 C40.94733518 23.12207989 43.6143309 16.49262668 46.3125 9.875 C46.86176147 8.51894653 46.86176147 8.51894653 47.42211914 7.13549805 C47.91893188 5.91987183 47.91893188 5.91987183 48.42578125 4.6796875 C48.70848877 3.98601074 48.99119629 3.29233398 49.2824707 2.57763672 C50 1 50 1 51 0 C53.35313555 -0.07271741 55.70833668 -0.08370868 58.0625 -0.0625 C59.35285156 -0.05347656 60.64320313 -0.04445312 61.97265625 -0.03515625 C62.97167969 -0.02355469 63.97070312 -0.01195312 65 0 C64.52304809 6.96635096 61.77862293 12.78154816 59.00390625 19.125 C58.24254616 20.89278809 58.24254616 20.89278809 57.46580505 22.69628906 C56.11427828 25.83397361 54.75260684 28.96715389 53.38873291 32.0994873 C52.04008058 35.20167658 50.7011275 38.3080422 49.36132812 41.4140625 C46.25291848 48.6146113 43.12770698 55.80781641 40 63 C38.99457706 65.31377955 37.98920471 67.62758109 36.98388672 69.94140625 C34.6574135 75.29491946 32.32925519 80.64769665 30 86 C25.05 86 20.1 86 15 86 C13.47684473 81.43053419 12.42146156 77.42089103 11.57958984 72.72875977 C11.45250137 72.027117 11.3254129 71.32547424 11.19447327 70.60256958 C10.77869191 68.29964855 10.36952702 65.99561331 9.9609375 63.69140625 C9.67255166 62.08003385 9.38394338 60.46870124 9.09512329 58.85740662 C8.49202563 55.48644321 7.89233738 52.1148948 7.29492188 48.74291992 C6.53100146 44.43332283 5.75752948 40.12550368 4.98134422 35.81810093 C4.38341555 32.49276198 3.79114325 29.16643408 3.20048904 25.83979607 C2.91768685 24.25153366 2.63302111 22.66360185 2.34641647 21.07602119 C1.94565726 18.85188168 1.55269618 16.62649466 1.16162109 14.40063477 C0.9367099 13.13743912 0.71179871 11.87424347 0.48007202 10.57276917 C0 7 0 7 0 0 Z " fill="#000000" transform="translate(192,164)"/>
<path d="M0 0 C18.81 0 37.62 0 57 0 C56 12 56 12 55 13 C51.89748799 13.08874135 48.8173188 13.11518455 45.71484375 13.09765625 C44.78402481 13.0962413 43.85320587 13.09482635 42.8941803 13.09336853 C39.90858809 13.08775172 36.92306971 13.0751964 33.9375 13.0625 C31.91862087 13.05748716 29.89974057 13.05292388 27.88085938 13.04882812 C22.92054428 13.03777683 17.96028468 13.02050095 13 13 C12.90912109 14.37671875 12.90912109 14.37671875 12.81640625 15.78125 C12.73261719 17.0084375 12.64882812 18.235625 12.5625 19.5 C12.48128906 20.7065625 12.40007812 21.913125 12.31640625 23.15625 C11.99052632 27.11508765 11.49269421 31.05844629 11 35 C24.86 35.495 24.86 35.495 39 36 C39 44 39 44 37 49 C27.76 49 18.52 49 9 49 C8.72285156 51.50335938 8.44570312 54.00671875 8.16015625 56.5859375 C7.88966931 59.00531227 7.61787253 61.42453652 7.34594727 63.84375 C7.15740053 65.52751617 6.97021983 67.21143589 6.78442383 68.89550781 C6.51741206 71.31356635 6.245522 73.73103346 5.97265625 76.1484375 C5.89032242 76.9036972 5.80798859 77.65895691 5.72315979 78.43710327 C5.11387171 83.77225659 5.11387171 83.77225659 4 86 C-0.62 86 -5.24 86 -10 86 C-10.27768692 76.92945482 -9.19983047 68.13520906 -8.06640625 59.16015625 C-7.8665775 57.54501212 -7.66719861 55.92981228 -7.46824646 54.31455994 C-7.05250402 50.94970386 -6.63271327 47.58538726 -6.2097168 44.22143555 C-5.66761538 39.90917219 -5.13369097 35.59594542 -4.60249424 31.2823267 C-4.19234441 27.95608172 -3.77897625 24.63024332 -3.3645153 21.304533 C-3.16641275 19.71339665 -2.96906714 18.12216587 -2.77249336 16.53083992 C-2.4980114 14.31450836 -2.21945579 12.09872751 -1.93969727 9.88305664 C-1.78203384 8.62304337 -1.62437042 7.36303009 -1.46192932 6.06483459 C-1 3 -1 3 0 0 Z " fill="#000000" transform="translate(67,59)"/>
<path d="M0 0 C4.95 0 9.9 0 15 0 C18.62776014 8.35484155 21.74113528 16.78748604 24.67602539 25.40722656 C24.96340576 26.24608398 25.25078613 27.08494141 25.546875 27.94921875 C25.80307617 28.70549561 26.05927734 29.46177246 26.32324219 30.2409668 C26.86251738 31.99786571 26.86251738 31.99786571 28 33 C30.36629942 29.10402566 32.73242338 25.20794484 35.09838867 21.31176758 C35.90237753 19.98784544 36.70641335 18.66395182 37.51049805 17.34008789 C38.66988434 15.43122836 39.82909869 13.52226451 40.98828125 11.61328125 C41.34465164 11.02662186 41.70102203 10.43996246 42.06819153 9.83552551 C43.61526183 7.28742993 45.12725336 4.75764393 46.51367188 2.1171875 C47.00416016 1.41851562 47.49464844 0.71984375 48 0 C50.94093052 -0.37859559 53.27644958 -0.47775614 56.1875 -0.3125 C56.93708984 -0.28994141 57.68667969 -0.26738281 58.45898438 -0.24414062 C60.3068447 -0.18529157 62.15367667 -0.09560938 64 0 C63.33821959 3.64756213 61.77094439 6.27733199 59.82421875 9.41015625 C59.16631348 10.47395508 58.5084082 11.53775391 57.83056641 12.63378906 C57.11624759 13.77671562 56.40189136 14.91961879 55.6875 16.0625 C54.9622673 17.23246203 54.23749847 18.40271172 53.51318359 19.57324219 C50.15971589 24.9830816 46.77392254 30.37132555 43.33984375 35.73046875 C42.79303955 36.58568115 42.24623535 37.44089355 41.68286133 38.32202148 C40.67214541 39.89725574 39.65539864 41.46864286 38.6315918 43.03540039 C38.17824463 43.74043701 37.72489746 44.44547363 37.2578125 45.171875 C36.8673877 45.7709668 36.47696289 46.37005859 36.07470703 46.98730469 C33.49786098 51.81318357 32.63039251 56.73090913 31.96484375 62.11328125 C31.88126114 62.76830124 31.79767853 63.42332123 31.71156311 64.09819031 C31.44781247 66.16895356 31.19193865 68.24057353 30.9375 70.3125 C30.67884181 72.40217955 30.41839856 74.49156826 30.15272522 76.58036804 C29.91359129 78.46226713 29.681118 80.34500901 29.44897461 82.2277832 C29 85 29 85 28 86 C25.81360547 86.07258946 23.62499611 86.08373783 21.4375 86.0625 C20.23996094 86.05347656 19.04242188 86.04445313 17.80859375 86.03515625 C16.41833984 86.01775391 16.41833984 86.01775391 15 86 C14.07681203 82.27396112 14.02379033 79.33530091 14.55859375 75.54296875 C14.69716797 74.51236328 14.83574219 73.48175781 14.97851562 72.41992188 C15.12998047 71.35322266 15.28144531 70.28652344 15.4375 69.1875 C15.73266946 67.07748949 16.0231345 64.96681485 16.30859375 62.85546875 C16.44064209 61.92371826 16.57269043 60.99196777 16.70874023 60.03198242 C17.51039526 51.68684099 16.37709364 46.26227696 13.28125 38.515625 C12.90391724 37.53760925 12.52658447 36.55959351 12.13781738 35.55194092 C10.93776796 32.44624079 9.7201601 29.34784826 8.5 26.25 C7.28221908 23.13703851 6.06837087 20.02268468 4.86218262 16.9052124 C4.11272555 14.9702818 3.35621376 13.03806563 2.59191895 11.10894775 C2.25156616 10.23413757 1.91121338 9.35932739 1.56054688 8.45800781 C1.2585437 7.69159973 0.95654053 6.92519165 0.64538574 6.13555908 C0 4 0 4 0 0 Z " fill="#000000" transform="translate(360,59)"/>
<path d="M0 0 C20.13 0 40.26 0 61 0 C61 10 61 10 60 13 C52.08 13 44.16 13 36 13 C35.86078125 15.82111328 35.86078125 15.82111328 35.71875 18.69921875 C35.0200053 30.16602374 33.43150568 41.55629985 31.98876953 52.94750977 C31.49554438 56.84773324 31.01102482 60.74897325 30.52734375 64.65039062 C30.21665815 67.12766847 29.9054786 69.60488443 29.59375 72.08203125 C29.44893188 73.2495845 29.30411377 74.41713776 29.15490723 75.62007141 C29.01806519 76.69266708 28.88122314 77.76526276 28.74023438 78.87036133 C28.62111694 79.81551102 28.50199951 80.76066071 28.37927246 81.73445129 C28 84 28 84 27 86 C22.38 86 17.76 86 13 86 C13.68782024 70.73232826 15.65317996 55.65622565 17.5625 40.5 C17.89617506 37.82694618 18.22837867 35.15371018 18.56054688 32.48046875 C19.36861258 25.98633363 20.1826471 19.49297249 21 13 C13.74 13 6.48 13 -1 13 C-1 5 -1 5 0 0 Z " fill="#000000" transform="translate(433,164)"/>
<path d="M0 0 C4.62 0 9.24 0 14 0 C14.22496513 8.38698107 13.34645931 16.452984 12.25 24.7578125 C12.07008809 26.15592503 11.89073582 27.55410968 11.71191406 28.95236206 C11.24400182 32.59932802 10.7685869 36.2452762 10.29150391 39.89105225 C9.80430807 43.62469017 9.32428185 47.35924954 8.84375 51.09375 C7.9035044 58.39686455 6.95147165 65.69830459 6 73 C19.53 73 33.06 73 47 73 C47 80 47 80 45 86 C26.85 86 8.7 86 -10 86 C-10 79.73948188 -9.94464309 74.30195359 -9.18969727 68.21118164 C-9.10352142 67.5025296 -9.01734558 66.79387756 -8.92855835 66.06375122 C-8.64707477 63.76178107 -8.35697032 61.46099631 -8.06640625 59.16015625 C-7.8665775 57.54501212 -7.66719861 55.92981228 -7.46824646 54.31455994 C-7.05250402 50.94970386 -6.63271327 47.58538726 -6.2097168 44.22143555 C-5.66761538 39.90917219 -5.13369097 35.59594542 -4.60249424 31.2823267 C-4.19234441 27.95608172 -3.77897625 24.63024332 -3.3645153 21.304533 C-3.16641275 19.71339665 -2.96906714 18.12216587 -2.77249336 16.53083992 C-2.4980114 14.31450836 -2.21945579 12.09872751 -1.93969727 9.88305664 C-1.78203384 8.62304337 -1.62437042 7.36303009 -1.46192932 6.06483459 C-1 3 -1 3 0 0 Z " fill="#000000" transform="translate(317,59)"/>
<path d="M0 0 C4.62 0 9.24 0 14 0 C15.25955378 3.77866135 14.70789035 6.88061233 14.21142578 10.74438477 C14.1156424 11.53164948 14.01985901 12.31891418 13.9211731 13.1300354 C13.60249795 15.73468814 13.27409617 18.33801171 12.9453125 20.94140625 C12.72159399 22.74830764 12.49836434 24.55526963 12.27560425 26.36228943 C11.80723746 30.14985882 11.33430237 33.9368205 10.85791016 37.72338867 C10.24656495 42.58402077 9.64444378 47.44573914 9.04545784 52.30790806 C8.58514149 56.03908171 8.12102523 59.76977453 7.65563583 63.50031853 C7.43223149 65.29321696 7.20976978 67.08623311 6.98825455 68.87936592 C6.67833043 71.38172864 6.36356022 73.88343299 6.04736328 76.38500977 C5.95588013 77.1305159 5.86439697 77.87602203 5.7701416 78.64411926 C5.11444019 83.77111963 5.11444019 83.77111963 4 86 C-0.62 86 -5.24 86 -10 86 C-10.30325022 77.32826899 -9.14853693 68.87452513 -8.06640625 60.29296875 C-7.86661306 58.67878664 -7.6672334 57.0645533 -7.46824646 55.45027161 C-7.05210918 52.08368709 -6.63235241 48.71758143 -6.2097168 45.35180664 C-5.66847119 41.04063217 -5.13427024 36.72862193 -4.60249424 32.41627026 C-4.19190054 29.0900385 -3.7786633 25.76413969 -3.3645153 22.43834877 C-3.16659575 20.8480162 -2.96925026 19.25761207 -2.77249336 17.66713524 C-2.4974216 15.44858227 -2.21904916 13.23046873 -1.93969727 11.01245117 C-1.78203384 9.7516423 -1.62437042 8.49083344 -1.46192932 7.19181824 C-1 4 -1 4 0 0 Z " fill="#000000" transform="translate(269,164)"/>
<path d="M0 0 C4.62 0 9.24 0 14 0 C14.28125633 9.15020589 13.19195255 18.03671203 12.06640625 27.09375 C11.86660308 28.73371395 11.66722363 30.37372957 11.46824646 32.01379395 C11.05249345 35.42991599 10.63267963 38.84550549 10.2097168 42.26074219 C9.66723356 46.64257377 9.13347102 51.02541416 8.60249424 55.40865326 C8.19274213 58.78551467 7.77924629 62.161909 7.3645153 65.53816223 C7.16618504 67.15521849 6.96884023 68.77239593 6.77249336 70.38969421 C6.49858795 72.63982772 6.21984497 74.8893082 5.93969727 77.13867188 C5.78203384 78.41867065 5.62437042 79.69866943 5.46192932 81.01745605 C5 84 5 84 4 86 C-0.62 86 -5.24 86 -10 86 C-10.27768692 76.92945482 -9.19983047 68.13520906 -8.06640625 59.16015625 C-7.8665775 57.54501212 -7.66719861 55.92981228 -7.46824646 54.31455994 C-7.05250402 50.94970386 -6.63271327 47.58538726 -6.2097168 44.22143555 C-5.66761538 39.90917219 -5.13369097 35.59594542 -4.60249424 31.2823267 C-4.19234441 27.95608172 -3.77897625 24.63024332 -3.3645153 21.304533 C-3.16641275 19.71339665 -2.96906714 18.12216587 -2.77249336 16.53083992 C-2.4980114 14.31450836 -2.21945579 12.09872751 -1.93969727 9.88305664 C-1.78203384 8.62304337 -1.62437042 7.36303009 -1.46192932 6.06483459 C-1 3 -1 3 0 0 Z " fill="#000000" transform="translate(286,59)"/>
</svg>
